<svg version="1.2" xmlns="http://www.w3.org/2000/svg" viewBox="0 0 93 92" width="93" height="92">
	<title>thenew-logo-svg</title>
	<style>
		.s0 { fill: #82abef } 
		.s1 { fill: #7c84fc } 
		.s2 { fill: #0c0c24 } 
		.s3 { fill: #0c0c2c } 
		.s4 { fill: #4c7858 } 
		.s5 { fill: #500c58 } 
		.s6 { fill: #100c24 } 
	</style>
	<g id="svgg">
		<path id="path0" fill-rule="evenodd" class="s0" d="m4.9 13.4c1.7 0.1 2.4 0.1 4.8 0.4 0.5 0 1.2 0.1 1.5 0.1 0.4 0.1 0.9 0.1 1.1 0.2q0.4 0.1 0.4-0.1 0-0.2 0.2 0.1c0.2 0.1 0.5 0.2 0.7 0.3 1 0 1.3 0.1 1.6 0.2 0.2 0 0.5 0.1 0.7 0 0.2 0 0.4 0 0.4 0.1 0 0 1.1 0.8 2.5 1.7 6 4 6.7 4.5 6.7 4.6 0 0.2-0.3 0.2-0.4 0-0.1-0.1-0.3-0.1-0.5-0.1q-0.4 0.1-0.1-0.1 0.3-0.1 0-0.1-0.4 0-0.4 0.2c0 0-0.1 0-0.2 0-0.2-0.1-0.2-0.1 0-0.3q0.2-0.1-0.2-0.1c-0.3 0-0.6 0-0.8-0.1-0.3-0.2-0.6-0.2-0.8-0.2-0.3 0.1-0.4 0.1-0.4-0.1q0-0.4-0.2-0.1-0.2 0.1-0.4 0c-0.1-0.1-0.4-0.2-0.6-0.2-0.2-0.1-0.5-0.1-0.7-0.2-0.3-0.1-1.9-0.4-2.6-0.5-0.4 0-0.8-0.1-1-0.2-0.3 0-1.1-0.2-1.8-0.2-0.7-0.1-1.5-0.2-1.7-0.3-0.5 0-1.7-0.2-2.9-0.3-0.4-0.1-2.1-0.1-3.7-0.2-3.8-0.1-4.2-0.2-4.9-1.4-0.6-1 0.3-2.9 1.4-3 0.3-0.1 1.3-0.1 2.3-0.1zm7 14.2c0.4 0.1 2.4 0.4 2.9 0.5 0.3 0 0.6 0.1 0.9 0.1 0.2 0.1 1.1 0.3 1.9 0.5 1.7 0.4 3.9 1 5.2 1.5 0.5 0.2 1.1 0.3 1.2 0.3 0.2 0 0.3 0.1 0.3 0.2 0 0.1 0.1 0.1 0.2 0.1 0.1 0 0.4 0.1 0.7 0.3 0.3 0.1 0.8 0.3 1.2 0.4 0.4 0.1 1.2 0.5 1.8 0.8 0.7 0.3 1.3 0.5 1.4 0.5 0.1 0 0.3 0.1 0.4 0.3 0.1 0.1 0.4 0.2 0.6 0.3 0.2 0.1 0.8 0.4 1.4 0.7 0.5 0.3 1 0.6 1.1 0.5 0 0 0.5 0.3 1.1 0.7 0.5 0.3 1 0.6 1 0.6 0.1-0.1 0.2 0 0.3 0.1 0.4 0.3 3.3 2.3 3.4 2.3 0.1 0 0.9 0.6 1.5 1.2 0.2 0.1 0.6 0.4 0.8 0.6 0.6 0.3 0.7 0.4 1.6 1.2 0.4 0.4 1.1 1 1.6 1.4 0.9 0.8 4.8 4.7 5.4 5.3 0.5 0.7 3.3 4.2 3.6 4.5 0.1 0.2 0.3 0.4 0.3 0.4 0 0.1 0.1 0.3 0.3 0.5 0.2 0.2 0.3 0.4 0.3 0.5 0 0.1 0.1 0.2 0.1 0.2q0.2 0.2 1.8 2.7c0.3 0.4 0.5 0.8 0.5 0.9 0 0.1 0 0.1 0.1 0.1 0.1 0 0.6 1.1 1.3 2.3 0.6 1.3 1.2 2.3 1.3 2.4 0 0 0.1 0.2 0.1 0.3 0 0.2 0.2 0.5 0.3 0.8 0.2 0.3 0.4 0.7 0.4 0.7 0 0.1 0.1 0.6 0.4 1.1 1 2.3 2.7 7.6 3.2 10.2 0 0.2 0.1 0.5 0.1 0.6 0.3 0.4 1.1 7 1.2 9.2 0 1.5 0.1 2.8 0.2 3 0.5 1.9-2.4 3.7-3.8 2.3-0.6-0.7-0.6-0.8-0.7-2.9-0.3-5-0.5-7-1.3-10.7-0.5-2.5-0.7-3.2-0.8-3.4-0.1-0.2-0.2-0.6-0.3-0.9-0.2-0.8-1.1-3.5-1.2-3.7-0.1-0.1-0.2-0.3-0.2-0.4 0-0.3-0.7-2.1-1.6-3.9-0.3-0.7-0.6-1.3-0.6-1.4 0 0-0.1-0.4-0.4-0.7-0.2-0.4-0.7-1.2-1-1.8-0.3-0.6-0.8-1.5-1.1-1.9-0.2-0.4-0.5-0.9-0.6-1 0-0.2-0.1-0.3-0.2-0.3-0.1 0-0.2-0.1-0.2-0.2 0-0.1-1.9-2.9-2.6-3.7-4.4-5.5-8.7-9.5-13.8-12.9-5.2-3.4-10.9-6-16.6-7.5-0.5-0.1-1.2-0.3-1.6-0.4-0.4-0.1-1.3-0.3-2-0.4-0.7-0.1-1.7-0.3-2.3-0.4-2-0.4-5.6-0.7-7.6-0.7-0.9 0-2-0.1-2.3-0.2-1.8-0.5-2-3-0.4-4 0.7-0.5 6.8-0.3 9.8 0.3zm-4.7 13.3c1.8 0.2 2.2 0.2 2.6 0.3 0.1 0.1 0.8 0.2 1.5 0.2 0.6 0.1 1.2 0.2 1.3 0.2 0.1 0.1 0.5 0.2 1.1 0.3 0.5 0.1 1.3 0.4 1.8 0.5 0.6 0.1 1 0.2 1 0.1 0 0 0.1 0 0.2 0.1 0.1 0.1 0.7 0.3 1.2 0.5 0.6 0.1 1.2 0.4 1.5 0.5 0.3 0.1 0.9 0.3 1.4 0.5 1 0.4 4.1 1.8 5 2.3 0.1 0.1 0.9 0.5 1.6 0.9 1.8 1 5.6 3.7 6.2 4.3 0.1 0.1 0.3 0.3 0.5 0.4 1.5 1 6.4 6.2 7.6 8 0.3 0.4 0.8 1.1 1.1 1.4 0.3 0.4 0.6 0.9 0.8 1.2 1.2 2 2.7 4.8 3.2 5.8 1.5 3 3.1 7.7 3.6 10.7 0.2 0.7 0.3 1.5 0.4 1.7 0.9 4.4 0.8 9.2-0.3 10-1.8 1.3-3.5-0.1-3.5-2.8 0-5.1-1.5-11.6-3.7-16.4-1.4-3.1-2.2-4.7-3.8-7-0.7-1-1.3-1.9-1.3-1.9-0.1-0.1-0.6-0.7-1.2-1.4-1-1.3-4.5-4.9-5.3-5.5-0.2-0.1-0.6-0.5-0.9-0.8-0.4-0.3-0.7-0.5-0.8-0.5 0 0-0.4-0.3-0.8-0.7-0.4-0.3-0.8-0.6-0.9-0.6-0.1 0-0.5-0.3-0.9-0.6-0.8-0.6-1.8-1.2-2.9-1.8-0.4-0.2-0.8-0.4-0.8-0.5-0.1-0.1-1.2-0.6-2.9-1.4-1.8-0.8-2-0.8-3.5-1.3-0.7-0.3-1.7-0.6-2-0.7-0.4-0.1-1.1-0.3-1.5-0.4-0.4-0.1-1.2-0.3-1.8-0.4-0.6-0.1-1.7-0.3-2.4-0.4-0.7-0.1-1.9-0.3-2.5-0.4-0.7-0.1-2.1-0.1-3-0.1h-1.8l-0.7-0.7c-1.1-1.2-0.7-3 0.8-3.6 0.5-0.2 1.7-0.2 4.8 0zm52.9 3c1.3 0.9 3.3 2.2 4.3 2.9 2.1 1.4 2.6 1.8 2.6 2.2q0 0.2 0.3 0.1 0.2-0.1 0.1 0.1c0 0.1 0.1 0.4 0.3 0.7 0.3 0.3 0.5 0.6 0.5 0.7 0 0.2 1.2 2.1 1.3 2.1q0.2 0 0.1 0.1c-0.1 0.1 0 0.3 0.1 0.4 0.1 0.1 0.3 0.3 0.3 0.5 0.1 0.1 0.2 0.3 0.3 0.5 0.1 0.1 0.3 0.6 0.6 1.1 0.2 0.4 0.4 0.8 0.5 0.8 0 0.1 0.1 0.2 0.1 0.4 0 0.2 0.1 0.4 0.3 0.5 0.1 0.1 0.2 0.2 0.1 0.3 0 0 0.2 0.5 0.4 1 0.7 1.5 1.9 4.2 1.9 4.6 0 0.1 0.2 0.4 0.3 0.8 0.5 1.4 0.6 1.8 0.9 2.7 0.2 0.6 0.3 1.1 0.4 1.2 0 0.3 0 0.4 0.2 0.9 0.2 0.7 0.8 2.9 0.9 3.5 0.1 0.4 0.3 1.1 0.4 1.4 0 0.1 0.1 0.9 0.3 1.7 0.1 0.8 0.3 1.9 0.4 2.3 0.3 1.8 0.7 5.7 0.8 9 0.1 4-0.2 4.8-2.2 4.8-1.8 0-2.3-0.9-2.3-4.1 0-1.3-0.1-3.6-0.3-5.3-0.2-1.6-0.4-3.2-0.4-3.6-0.1-0.4-0.2-1.2-0.4-1.8-0.1-0.5-0.2-1.1-0.2-1.4 0-0.3-0.1-0.8-0.2-1.3-0.2-0.4-0.4-1.3-0.6-2-0.1-0.7-0.3-1.6-0.5-1.9-0.1-0.4-0.3-1.3-0.5-2-0.6-1.8-0.9-2.7-1-3-0.1-0.2-0.5-1.1-0.8-2-0.3-1-0.7-1.9-0.8-2-0.2-0.2-0.3-0.5-0.3-0.7 0-0.1 0-0.3-0.1-0.3-0.1 0-0.2-0.1-0.2-0.3 0-0.1-0.2-0.6-0.4-0.9-0.8-1.6-1.3-2.5-1.3-2.6 0-0.1-0.2-0.5-0.4-0.9-0.3-0.4-0.7-1.2-1-1.8-0.3-0.6-0.7-1.2-0.9-1.4-0.2-0.2-0.3-0.5-0.3-0.6 0-0.2-0.1-0.3-0.2-0.3-0.1 0-0.3-0.3-0.4-0.7-0.2-0.3-0.4-0.6-0.5-0.6 0 0-0.1-0.1-0.1-0.3 0-0.1-0.1-0.3-0.2-0.3-0.2-0.1-0.3-0.2-0.3-0.4 0-0.1-0.1-0.2-0.2-0.2-0.1 0-0.1-0.1-0.1-0.2 0-0.3-0.4-0.8-1.1-1.5-0.1-0.2-0.3-0.3-0.2-0.4 0-0.2-0.5-0.7-0.6-0.6q-0.1 0 0-0.2c0-0.2-0.9-1.3-1-1.1q-0.1 0-0.2-0.1c0-0.6 0-0.6-0.2-0.6-0.1 0-0.2-0.1-0.1-0.2 0-0.2 0-0.3-0.1-0.3-0.1 0-0.2-0.1-0.3-0.3-0.1-0.2-0.2-0.3-0.3-0.3q-0.3 0.1-0.1-0.2c0-0.2 0-0.2-0.2-0.1q-0.3 0.1-0.2-0.1c0.2-0.2 0.3-0.2 3 1.6zm-46.1 11.6c12.3 4 21.7 14.8 23.8 27.3 1.1 6.3 0.7 8.4-1.6 8.4-1.8 0-2.3-0.8-2.4-3.6-0.1-1.1-0.2-2.2-0.2-2.5 0-0.3-0.1-0.9-0.2-1.3-0.1-1-0.5-2.5-0.8-3.5-0.1-0.4-0.3-1-0.4-1.4-0.2-0.7-0.4-1-1.2-2.8-4.6-10.1-14.9-17.1-26.2-17.7-1.5-0.1-2.2-0.2-2.7-0.4-1.4-0.8-1.5-2.9-0.1-3.8 1.2-0.8 7.6-0.1 12 1.3zm73.4 6.9c0.1 0.2 0.2 0.4 0.2 0.4 0 0.1 0.1 0.3 0.1 0.4 0.1 0.2 0.2 0.5 0.3 0.7q0.2 0.3 0 0.2-0.2-0.1-0.1 0.1c0.1 0.2 0.2 0.3 0.3 0.3q0.1 0 0.1 0.2c-0.1 0 0 0.4 0.1 0.8 0.3 0.6 0.3 0.7 0.5 1.5 0.1 0.2 0.2 0.8 0.4 1.3 0.1 0.5 0.3 1.1 0.3 1.3 0 0.2 0.1 0.7 0.2 1.2 0.1 0.4 0.2 1 0.3 1.1 0 0.2 0.1 0.3 0.1 0.3 0 0 0 0.2 0.1 0.4 0 0.2 0.1 1.1 0.3 2.1 0.2 1.6 0.4 3 0.7 5 0 0.4 0.1 0.9 0.1 1.2 0 0.3 0.1 1.6 0.2 2.9 0 1.4 0.1 2.8 0.2 3.2 0.3 3.2-1.2 4.9-3.4 3.9-0.9-0.4-1-0.8-1.1-3.7-0.1-1.5-0.2-3-0.2-3.5 0-0.4-0.1-1.5-0.2-2.4 0-0.9-0.2-2.1-0.2-2.6-0.1-0.5-0.2-1.4-0.3-1.9 0-0.5-0.2-1.2-0.2-1.6-0.3-1.4-0.4-2.1-0.5-2.4 0-0.2-0.1-0.6-0.2-1-0.1-0.4-0.3-1.2-0.4-1.8-0.3-1.4-0.5-2-0.5-2.3-0.1 0-0.2-0.7-0.4-1.5-0.2-0.7-0.5-1.6-0.6-1.9-0.1-0.4-0.2-0.6-0.2-0.6 0.1 0 0-0.2-0.1-0.5-0.1-0.2-0.2-0.6-0.2-0.7 0-0.1-0.1-0.4-0.2-0.6-0.1-0.2-0.2-0.4-0.1-0.4 0 0 0-0.1-0.1-0.2q-0.2-0.3 0-0.4c0.1-0.1-0.2-0.7-0.5-1.1-0.2-0.1-0.2-0.5 0-0.5 0.2 0 0.2 0 0-0.2-0.1-0.1-0.2-0.2-0.2-0.3 0-0.4 5.3 3.2 5.4 3.6zm-79.2 3.2c2.1 0.4 6.5 2.1 6.8 2.6 0 0 0.2 0.1 0.3 0.2 1.3 0.4 5.3 3.9 6.6 5.7 5.3 6.9 7.1 17.1 3.1 17.1-1.6 0-2.2-0.7-2.4-3-0.3-3.3-0.3-3.1-0.9-5-0.4-1.2-0.9-2.6-1.1-2.9-0.1-0.1-0.4-0.6-0.6-1-0.8-1.6-3.1-4.2-4.5-5.3-0.4-0.3-0.8-0.6-0.8-0.7-0.2-0.2-1.2-0.8-2.1-1.3-0.5-0.2-1-0.5-1.2-0.6-1.4-0.8-4.3-1.5-7-1.8l-2.1-0.2-0.7-0.6c-1.1-1.1-0.7-3 0.8-3.6 0.7-0.3 3.4-0.1 5.8 0.4zm-0.2 11.2c1.7 0.6 4.5 2.7 5.4 3.9 0.2 0.3 0.4 0.6 0.4 0.6 1.5 1.4 3 7.2 2.3 8.7-1.1 2.1-4.3 1.3-4.3-1.1 0-4.2-3.9-8.4-7.9-8.4-3.2 0-4.2-3.9-1.2-4.6 1-0.2 3.4 0.2 5.3 0.9z"/>
		<path id="path1" fill-rule="evenodd" class="s1" d="m2.4 0.5h3.6c8.7 0.2 17.6 1.8 25.8 4.7 1 0.3 1.9 0.6 2 0.6 0.1 0 0.4 0.2 0.8 0.4 0.4 0.1 0.7 0.3 0.8 0.3 0.2 0 2.3 0.9 2.8 1.2 0.2 0.1 0.4 0.1 0.5 0.1 0.2 0 5.4 2.6 7.5 3.7 0.9 0.6 1.8 1 1.8 1 0.1 0 0.2 0.1 0.2 0.1 0 0.1 0.3 0.3 0.7 0.5 0.8 0.5 0.6 0.3 3.9 2.5 2.2 1.5 5.7 4 6.3 4.6 0.1 0.1 0.6 0.6 1.1 1 2.2 1.8 3.4 3 5.6 5.1 2 2 4.6 4.9 5.6 6.2 0.2 0.2 0.5 0.5 0.6 0.7 0.4 0.4 3.7 4.8 3.7 5 0 0 0 0.1 0.1 0.2 0.2 0 2.3 3.1 3.1 4.5 0.3 0.5 0.8 1.5 1.2 2.2 1 1.6 3.4 6.3 4.2 8.3 0.4 0.9 0.9 2 1.1 2.4 0.1 0.3 0.3 0.7 0.3 0.8 0 0.1 0.1 0.4 0.2 0.7 0.2 0.3 0.3 0.6 0.3 0.7 0.1 0.2 0.1 0.4 0.2 0.5 0.1 0.2 0.1 0.4 0.2 0.5 0 0.2 0 0.3 0.1 0.4 0.2 0.4 1.7 5 1.6 5.1q-0.3 0.2-0.4-0.6c-0.1-0.4-0.1-0.6-0.3-1.1 0 0-0.1-0.2-0.2-0.4 0-0.2-1.3-1.1-2.7-2-2.3-1.6-3.1-2-2.5-1.3q0.2 0.2 0 0.2c-0.1 0-0.2 0.1-0.1 0.2q0.1 0.3-0.1 0.1c-0.1-0.1-0.2-0.4-0.2-0.6 0-0.2-0.1-0.3-0.2-0.3 0 0-0.1-0.2-0.1-0.3 0-0.2-0.1-0.5-0.2-0.7-0.2-0.2-0.3-0.5-0.4-0.6 0-0.2-0.3-0.9-0.5-1.5-0.3-0.6-0.6-1.2-0.6-1.4 0-0.1 0-0.2-0.1-0.2-0.1-0.1-0.2-0.3-0.4-0.7-1.9-4-4.9-9.3-6.1-10.9-0.2-0.2-0.4-0.5-0.5-0.7-0.3-0.5-2.3-3.2-2.5-3.5-0.1 0-0.5-0.6-0.9-1.1-0.4-0.6-0.9-1.2-1.1-1.4-0.2-0.3-0.7-0.8-1.1-1.3-1.8-2.1-6.1-6.5-8.2-8.3-0.6-0.6-1.2-1.1-1.3-1.2-0.2-0.1-1.5-1.2-2.1-1.6-0.1-0.1-0.3-0.3-0.5-0.5-0.1-0.2-0.3-0.3-0.4-0.3-0.1 0-0.3-0.1-0.5-0.3-0.2-0.2-0.6-0.6-1-0.8-0.4-0.3-0.8-0.6-0.9-0.6-0.7-0.6-4.8-3.3-7-4.6-1.5-0.9-7.1-3.7-7.3-3.7 0 0-0.6-0.2-1.2-0.5-1.6-0.7-1.7-0.8-2.9-1.2-2.9-1.2-4.2-1.6-4.4-1.6-0.2 0-0.5-0.1-0.8-0.3-0.3-0.1-0.8-0.3-1.2-0.4-0.4-0.1-1.5-0.4-2.5-0.7-5.9-1.6-15-2.9-20.7-2.8-1.6 0-2.3-0.2-2.9-1-0.3-0.5-0.5-2.2-0.1-2.2 0.1 0 0.1-0.1 0.1-0.2 0-0.1 0.3-0.4 0.6-0.7zm48.9 0.1c0.6-0.1 1 0.1 2.3 0.9 0.1 0.1 0.5 0.3 0.8 0.5 0.3 0.1 0.6 0.3 0.8 0.4 0.2 0.1 1 0.7 1.8 1.2 0.8 0.5 1.5 0.9 1.6 0.9 0 0 3.7 2.6 4.7 3.3 8.4 6.4 15.2 13.2 21.3 21.4 1.2 1.6 4.1 5.9 4.4 6.5 0.1 0.2 0.3 0.5 0.5 0.9 2.2 3.6 2.4 4.1 2.1 5-0.4 1.5-2.4 2.1-3.5 1.1-0.5-0.4-1.8-2.5-1.8-2.8 0-0.1-0.1-0.2-0.1-0.2-0.2-0.1-0.5-0.7-1.8-2.7-0.1-0.2-0.2-0.4-0.3-0.5 0 0-0.9-1.2-1.2-1.8-0.5-0.8-1.7-2.4-1.8-2.5-0.1 0-0.1-0.1-0.1-0.2 0-0.1-3.6-4.7-4.2-5.3-0.1-0.1-0.5-0.5-0.7-0.8-2.7-3.2-6.8-7.3-11.6-11.3-0.8-0.8-7-5.4-7.1-5.4 0 0-0.7-0.4-1.4-0.9-0.7-0.4-2.4-1.5-3.8-2.3-2.7-1.6-3.2-2.2-3.2-3.2 0-0.6 0.6-1.7 1.2-2 0.2-0.1 0.7-0.2 1.1-0.2zm25.4 0.6c7.1 5.8 15.3 14.7 15 16.1 0 0.2 0 0.5-0.1 0.6 0 1.9-2.9 2-4.5 0.1-3.4-4.1-8.3-9-12.8-12.8q-2.7-2.4-0.7-4.2c0.8-0.7 2.1-0.6 3.1 0.2zm-67.8 12.3c0.4 0 0.7 0.1 0.7 0.2 0 0.1-1.1 0.1-1.3-0.1 0 0 0.3-0.1 0.6-0.1zm3.3 0.4c0.2 0 0.4 0.1 0.4 0.1 0 0.3-0.3 0.3-0.6 0-0.2-0.1-0.2-0.1 0.2-0.1zm1.3 0.2c1.3 0.1 1.3 0.1 1.2 0.3-0.1 0.1-1.3 0-1.7-0.2q-0.3-0.1 0.5-0.1zm1.9 0.3c0.3 0 0.6 0.1 0.7 0.1 0 0.1-0.2 0.2-0.4 0.2-0.3 0-0.6-0.1-0.6-0.2-0.1 0 0.1-0.1 0.3-0.1zm1.4 0.2c0.9 0.2 2.8 0.6 4 0.8 0.6 0.2 1.5 0.4 1.9 0.5 0.5 0.1 0.9 0.2 1 0.3 0.1 0.1 0.5 0.2 0.8 0.3 0.7 0.1 3.4 0.9 4.1 1.2 0.1 0.1 0.7 0.3 1.2 0.5 1.9 0.7 2.5 0.9 2.5 1.1q0 0.1 0.1 0c0.1 0 0.5 0.1 1 0.3 0.4 0.3 0.9 0.4 0.9 0.4 0.4 0.1 6 3 6.9 3.6 0.2 0.1 0.4 0.3 0.5 0.3 0.1 0 2.8 1.7 2.9 1.9 0 0 0.1 0.1 0.2 0.1 0.1 0 0.4 0.1 0.6 0.3 0.2 0.1 0.5 0.4 0.7 0.5 4.7 3.2 11.7 9.5 15 13.6 0.3 0.5 0.7 0.9 0.8 1 0.1 0.1 0.4 0.5 0.7 0.9 0.4 0.4 0.7 0.8 0.7 0.9 0.8 1 2.3 3.1 2.3 3.3 0 0.1 0.1 0.1 0.2 0.1q0.2 0.1 0.1 0.2c-0.1 0.1 0 0.2 0.2 0.2 0.1 0.1 0.2 0.2 0.1 0.3 0 0.1 0 0.2 0.2 0.2 0.1 0.1 0.2 0.3 0.2 0.4 0 0.1 0.1 0.2 0.2 0.2 0.1 0.1 0.7 1 0.5 1.1-0.1 0.2-0.3 0.1-0.3-0.1 0-0.3-0.6-0.8-2.6-2.1-1.1-0.7-3-2-4.4-2.9-1.3-1-2.6-1.7-2.8-1.7-0.3 0-0.9-0.4-0.8-0.6q0.1-0.1-0.1-0.2c-0.2 0-1.8-1.7-2.1-2.2-0.1-0.2-0.2-0.3-0.2-0.2 0 0.1-0.7-0.5-1.4-1.3-0.8-0.7-1.5-1.3-1.5-1.3 0 0-0.2-0.2-0.4-0.4-0.3-0.3-1.2-1.1-2-1.8-0.9-0.7-1.7-1.3-1.8-1.4-0.4-0.4-2.5-1.9-3.7-2.7-0.7-0.5-1.4-1-1.4-1.1q-0.1-0.1-0.2 0c0 0.1-0.1 0-0.3-0.1-0.3-0.3-0.8-0.6-1.3-0.9-0.2-0.1-0.6-0.3-0.9-0.5-1.1-0.7-4.5-2.4-6.2-3.2-0.5-0.2-1.3-0.6-1.8-0.8-0.5-0.3-0.9-0.5-1-0.5-0.1 0-0.2 0-0.2-0.1-0.1 0-0.2 0-0.2 0-0.1 0-0.4-0.2-0.8-0.4-0.4-0.1-1-0.4-1.4-0.5-1.5-0.4-3-1-2.9-1.1 0.1-0.1-0.1-0.1-0.3-0.1q-0.5 0.1-0.4-0.1 0.1-0.1-0.1 0c-0.2 0-0.4 0-0.4-0.1-0.2-0.3 1-0.1 1.5 0.2 0.4 0.3 0.6 0.4 0.6 0.2 0-0.1-1.1-0.9-2.5-1.8-6-4-6.7-4.5-6.7-4.6 0-0.1 0.2-0.1 0.5-0.1zm-11 3.3c0.4 0 0.6 0.1 0.4 0.1-0.2 0-0.6 0-0.8 0-0.2 0 0-0.1 0.4-0.1zm12.2 1.4c0.2 0 0.7 0.1 1.1 0.2 0.4 0 0.7 0.2 0.8 0.2 0.1 0.2-0.7 0.1-1.7-0.3-0.3-0.1-0.5-0.1-0.2-0.1zm3 0.7c0.1 0.1-0.1 0.1-0.4 0.1-0.2-0.1-0.5-0.1-0.5-0.2 0-0.2 0.8 0 0.9 0.1zm1.9 0.5c0.3 0.2 0.3 0.2 0 0.1-0.2 0-0.4-0.1-0.6-0.1-0.2 0-0.3 0-0.3-0.1 0-0.3 0.5-0.2 0.9 0.1zm34.9 22.3c0 0.1 0.2 0.4 0.4 0.6 0.3 0.5 0.5 1.1 0.3 0.9-0.1-0.1-0.2-0.2-0.2-0.3 0-0.1-0.2-0.3-0.5-0.6-0.3-0.2-0.5-0.5-0.4-0.6 0.2-0.1 0.4-0.1 0.4 0zm1.5 2.1c0.3 0.3 0.5 0.6 0.5 0.7 0 0 0.2 0.2 0.3 0.4 0.2 0.3 0.3 0.5 0.3 0.5-0.1 0.1-0.2 0-0.3-0.1-0.1-0.2-0.4-0.6-0.7-1-0.3-0.4-0.6-0.8-0.6-0.9 0-0.1 0.2 0.1 0.5 0.4zm1.4 2.1c0.2 0.1 0.4 0.5 0.6 0.7 0.2 0.2 0.3 0.4 0.3 0.5 0 0.1-0.2-0.1-0.5-0.5-0.4-0.5-0.6-0.9-0.6-0.9 0-0.1 0.1 0 0.2 0.2zm7.7 3.6c0.4 0.7 0.9 1.5 1 1.7 0.2 0.2 0.2 0.4 0.1 0.4-0.1 0-1.4-1.8-1.4-2.1 0 0-0.2-0.3-0.4-0.6-0.2-0.3-0.4-0.6-0.4-0.7q0-0.5 1.1 1.3zm14.1 9.7c0.2 0.6 0.3 1.2 0.1 1.2-0.1 0-0.1-0.1-0.1-0.2 0.1-0.1 0.1-0.3 0-0.3-0.1 0-0.2-0.2-0.3-0.5-0.2-0.7 0-0.8 0.3-0.2zm5.8 4.4c0.1 0 0.2 0.1 0.2 0.2 0 0.1 0 0.4 0.1 0.6 0.1 0.5-0.2 0.2-0.4-0.4 0-0.2 0-0.4 0.1-0.4zm-36.9 21.4c0.1 0.2 0.1 0.4 0 0.6 0 0.1-0.1 0-0.1-0.3 0-0.3 0.1-0.5 0.1-0.3z"/>
		<path id="path2" fill-rule="evenodd" class="s2" d="m132.8 42.8h7.9v8.5 8.5l0.6-0.8c3.4-3.9 9.9-3.8 12.7 0.3 1.4 2.2 1.5 3.1 1.5 15.6v10.6h-7.8v-9.6q0-9.6-0.2-10.4c-0.4-2-2.2-2.8-4.4-2-0.9 0.3-1.1 0.4-1.9 1.1l-0.5 0.5v20.4h-7.9zm226.6 4.3c5.6 2.3 7.9 6.1 7.9 12.9 0 9.6-5.1 14.1-15.9 14.1h-2.6v11.4h-7.8v-38.5l1.1-0.2c0.6-0.1 2.1-0.3 3.3-0.4 1.2-0.2 2.3-0.3 2.4-0.3 1.9-0.5 9.5 0.2 11.6 1zm-258.6-0.6h29.5v7h-10.6v32h-8v-32h-10.9zm85 0h4 4l0.3 0.7c0.9 1.5 1.2 2.1 1.9 3.4 0.4 0.7 0.8 1.4 0.8 1.5 0.2 0.1 0.8 1.3 1.7 2.9 0.3 0.6 0.6 1.1 0.7 1.2 0.1 0.2 1 1.8 1.8 3.3 0.2 0.4 0.5 0.9 0.7 1.2 0.1 0.3 0.5 0.9 0.8 1.4 1 1.9 1.5 2.8 2 3.7 0.3 0.5 0.5 0.9 0.5 0.9 0 0.1 0.2 0.4 0.4 0.8 0.2 0.3 0.4 0.6 0.3 0.7q-0.1 0.1 0.1 0.1c0.1 0 0.2 0.1 0.2 0.2 0 0 0.3 0.7 0.7 1.3 0.4 0.7 0.8 1.4 0.9 1.6 0.1 0.2 0.2-4.3 0.2-12.3v-12.6h7.5v39h-3.9c-3.6 0-4-0.1-4.2-0.3-0.1-0.2-0.4-0.8-0.8-1.5-0.3-0.6-0.7-1.2-0.7-1.3-0.1-0.1-0.4-0.7-0.7-1.3-1.2-2.1-1.7-3.1-1.8-3.2-0.1-0.1-0.4-0.7-0.7-1.3-1.2-2.1-1.7-3.1-1.8-3.2-0.1-0.1-0.4-0.7-0.7-1.3-1-1.7-1.7-3-2.1-3.6-0.2-0.4-0.5-1-0.7-1.4-0.3-0.5-0.5-0.9-0.5-1-0.1 0-0.2-0.3-0.4-0.5-0.6-1.1-1.1-2.1-1.1-2.1-0.1-0.1-0.3-0.5-0.5-0.9-0.3-0.5-0.5-0.9-0.5-1-0.1 0-0.3-0.3-0.4-0.7l-0.4-0.7-0.1 25.3h-7.5zm130.1 0h5.8c4 0 5.8 0 5.9 0.1 0.1 0.1 0.2 0.6 0.3 1.1 0.1 0.5 0.4 1.3 0.5 1.8 0.2 0.5 0.4 1.4 0.5 1.9 0.5 1.8 0.8 2.8 1 3.7 0.1 0.4 0.4 1.2 0.5 1.7 0.1 0.5 0.4 1.3 0.5 1.9 0.4 1.5 0.8 2.8 0.8 3.1 0.1 0.1 0.2 0.6 0.3 1 0.1 0.4 0.2 0.8 0.3 0.9 0 0.1 0.1 0.5 0.2 0.9 0.1 0.4 0.2 0.9 0.3 1 0.3 1.2 1 3.7 1.3 4.8 0.2 0.7 1.2 4.3 2.1 7.9 1 3.6 1.9 6.7 1.9 6.9 0.1 0.3-7.6 0.4-7.8 0.1-0.1-0.1-1.2-4.2-1.9-7-0.1-0.5-0.3-1.4-0.5-2.1l-0.3-1.1-6-0.1h-5.9l-0.3 1c-0.1 0.6-0.4 2-0.7 3.1q-0.8 3-0.9 3.5c-0.1 0-0.1 0.3-0.2 0.6-0.1 0.3-0.2 0.9-0.4 1.4l-0.2 0.9h-7.8l0.2-0.9c0.3-1 0.5-1.7 1.3-4.6 0.3-1.1 0.6-2.4 0.7-2.9 0.4-1.4 0.8-2.6 1-3.6 0.2-0.5 0.4-1.3 0.5-1.7 0.1-0.5 0.4-1.3 0.5-1.8 0.1-0.5 0.3-1.1 0.4-1.3 0.1-0.2 0.2-0.4 0.1-0.4 0-0.1 0-0.5 0.2-0.9 0.1-0.4 0.3-1 0.4-1.3 0.1-0.4 0.3-1.1 0.4-1.6 0.3-1.2 0.6-2.4 1.2-4.4 0.2-1 0.5-1.9 0.6-2.2 0.1-0.3 0.2-0.6 0.2-0.6 0-0.1 0-0.5 0.2-0.9 0.1-0.4 0.4-1.4 0.6-2.2 0.2-0.8 0.4-1.6 0.5-1.8 0-0.2 0.4-1.4 0.7-2.8 0.4-1.3 0.7-2.6 0.8-2.8zm55.8 0h8v39h-8zm-50.3 6.5c-0.1 0.4-0.5 2-0.9 3.5-0.4 1.4-0.7 2.7-0.7 2.9-0.1 0.1-0.3 1.1-0.6 2.2-0.7 2.5-0.9 3.3-0.9 3.6-0.1 0.1-0.2 0.9-0.4 1.6-0.2 0.7-0.4 1.4-0.4 1.4 0 0.1 1.9 0.2 4.2 0.2 3.9 0 4.2 0 4.1-0.3-0.1-0.3-1.3-4.8-1.9-7.1-0.1-0.5-0.3-1.3-0.5-1.9-0.1-0.5-0.3-1.4-0.5-1.9-0.1-0.5-0.4-1.8-0.7-2.9-0.6-2.3-0.6-2.3-0.8-1.3zm28.1-0.3h-0.6v14.8l0.7 0.1c4.7 0.6 7.9-0.5 9.3-3.3l0.5-1.2v-2.8c0-4.5-0.9-6.3-4-7.3-0.8-0.3-4.5-0.5-5.9-0.3zm-168 13.1c0.3 1.7 0.5 7.6 0.2 7.8-0.2 0-3.5 0.1-7.4 0.1h-7.1l0.1 0.6c0.3 3.7 1.9 5.2 5.6 5.4 1.8 0 4.8-0.2 5.5-0.5 0.2-0.1 0.8-0.2 1.2-0.2l0.9-0.2v6.4l-1.4 0.2c-0.8 0.2-1.8 0.4-2.2 0.5-0.8 0.2-6.4 0.2-7.3 0-0.4-0.1-1.2-0.3-1.9-0.5-3.7-0.8-6.4-3.3-7.5-6.9-0.2-0.7-0.4-1.4-0.5-1.7-0.6-2-0.6-9.4 0-11.3 0.7-2.4 0.9-3 1.4-3.8 0.5-1 1.6-2.4 2.2-2.9 0.2-0.1 0.5-0.4 0.6-0.5 0.6-0.6 2.7-1.5 4.2-1.8 6.9-1.5 11.8 1.9 13.4 9.3zm59.5-2.9c1 2.7 1.7 10.2 1 10.7-0.1 0-3.4 0.1-7.3 0.1h-7.1l0.1 0.6c0.2 3.1 1.5 4.8 4 5.3 1.6 0.3 5.6 0.1 7.1-0.4 0.2-0.1 0.8-0.2 1.3-0.3l0.8-0.1v6.4l-1.5 0.2c-0.8 0.2-1.8 0.4-2.2 0.5-3.3 0.9-10.2-0.2-12.8-2-4.4-2.9-6.2-12.1-4-19.8 0.9-3.3 4.6-7.2 6.6-7.2 0.2 0 0.4-0.1 0.4-0.2 0.1-0.1 0.7-0.2 1.2-0.3 6.1-1 10.5 1.3 12.4 6.5zm61.1-6.2l0.9 0.2v6.3l-0.8-0.1c-0.4 0-0.9-0.2-1.1-0.3-0.6-0.3-6.4-0.2-7.2 0.1-3.1 1.5-2.3 4.2 1.4 5.1 3.9 0.8 5.8 1.6 7.1 3 2.7 2.6 2.9 8 0.4 11.3-0.6 0.8-2.6 2.4-3 2.4-0.2 0-0.3 0.1-0.3 0.1 0 0.4-3.1 1.2-4.9 1.3-2.9 0.2-8.3-0.6-8.9-1.4-0.2-0.3-0.3-5.4 0-5.8 0.1-0.2 0.4-0.1 1.5 0.1 6.4 1.6 10.1 0.9 10.1-2 0.1-1.8-0.5-2.1-5.5-3.3-3.3-0.8-5.9-2.8-6.4-4.9 0-0.3-0.2-0.6-0.3-0.7-0.3-0.4-0.2-4.7 0.1-5.4 1.5-3.8 4.2-5.8 8.5-6.3 2.5-0.3 6.3-0.2 8.4 0.3zm-58.7-0.2h3.5c2.2 0 3.6 0.1 3.7 0.2 0.1 0.1 0.2 0.7 0.4 1.5 0.3 1.8 0.6 2.9 1.2 5.7 0.3 1.3 0.6 2.8 0.7 3.4 0.6 2.4 0.8 3.7 1 4.7 0.6 2.7 0.8 3.5 0.9 3.7 0.1 0.2 0.5-1.2 1.2-4 0.3-1.3 0.6-2.9 1-4.2 0.1-0.6 0.3-1.5 0.4-2 0.2-0.6 0.3-1.2 0.4-1.4 0-0.2 0.3-1.4 0.6-2.8 0.4-1.4 0.7-2.7 0.8-3 0.1-0.3 0.2-0.8 0.2-1.1l0.2-0.7h4.2c4.6 0 4.3 0 4.5 1 0 0.2 0.2 1 0.4 1.8 0.2 0.8 0.4 1.9 0.6 2.5 0.2 0.8 0.8 3.7 1.4 6 0.1 0.4 0.3 1.3 0.5 2.2 0.4 1.8 1.2 4.9 1.3 5.2 0.1 0.4 0.2 0.1 0.4-1 0.3-1.4 0.7-3.1 1-4.5 0.2-0.6 0.4-1.6 0.6-2.2 0.1-0.7 0.3-1.7 0.5-2.2 0.1-0.6 0.3-1.6 0.4-2.1 0.2-0.6 0.4-1.6 0.5-2.2 0.2-0.7 0.4-1.7 0.5-2.3 0.2-0.6 0.3-1.3 0.4-1.6l0.1-0.6h3.6c3.3 0 3.5 0.1 3.5 0.3-0.1 0.2-0.2 0.9-0.4 1.5-0.1 0.6-0.3 1.4-0.4 1.7-0.2 0.6-0.3 1.2-1 4.3-0.2 0.8-0.4 1.8-0.5 2.1-0.1 0.3-0.3 1.2-0.5 2.1-0.4 1.6-0.5 2.1-0.9 3.6-0.2 0.6-0.3 1.3-0.4 1.7 0 0.3-0.1 0.7-0.2 0.8 0 0.1-0.1 0.4-0.1 0.6-0.1 0.2-0.3 1.3-0.6 2.4-0.5 2.2-1.2 4.9-1.2 5.2 0 0.1-0.2 0.7-0.3 1.5l-0.3 1.2h-8.6l-0.6-2.7c-0.4-1.5-0.7-2.9-0.8-3.1-0.1-0.2-0.2-0.7-0.3-1.1 0-0.3-0.1-0.9-0.2-1.1-0.1-0.3-0.4-1.7-0.8-3-0.3-1.4-0.6-2.8-0.7-3.1-0.4-1.4-1.3-5.5-1.3-5.8 0-0.7-0.3 0-0.7 1.5-0.2 0.9-0.4 1.9-0.5 2.2-0.2 0.7-2.3 9.1-2.6 10.4-0.1 0.6-0.3 1.4-0.4 1.7-0.1 0.3-0.3 1.2-0.5 2.1-0.2 0.8-0.4 1.6-0.4 1.8-0.1 0.2-0.5 0.2-4.4 0.2h-4.3l-0.2-0.8c-0.2-1.1-0.6-2.7-0.9-4.1-0.2-0.5-0.4-1.5-0.6-2.1-0.1-0.7-0.3-1.6-0.5-2.1-0.5-2.1-0.7-3.3-1-4.3-0.1-0.5-0.3-1.4-0.4-2-0.2-0.5-0.4-1.5-0.6-2.1-0.1-0.7-0.3-1.6-0.5-2.1-0.6-2.5-0.8-3.4-1-4.3-0.1-0.5-0.2-1.1-0.3-1.2 0-0.2-0.1-0.5-0.2-0.9 0-0.3-0.2-0.9-0.3-1.4-0.1-0.4-0.2-1-0.2-1.2zm-73.7 5.1c-1.4 0.3-2.5 3.3-2.5 6.6 0 0.3 0.1 0.3 3.7 0.3h3.7l-0.2-1.4c-0.2-3-0.8-4.6-2-5.3-0.6-0.3-1.7-0.3-2.7-0.2zm60 0.2q-1.7 0.9-2.1 5.4l-0.1 1.3h7.4v-0.7c0-2.4-0.8-5-1.8-5.7-0.8-0.6-2.5-0.7-3.4-0.3z"/>
		<path id="path3" class="s3" d=""/>
		<path id="path4" class="s4" d=""/>
		<path id="path5" class="s5" d=""/>
		<path id="path6" class="s6" d=""/>
		<path id="path7" class="s6" d=""/>
		<path id="path8" class="s6" d=""/>
	</g>
</svg>